<?xml version="1.0" encoding="utf-8"?>
<!-- Generator: Adobe Illustrator 18.1.1, SVG Export Plug-In . SVG Version: 6.00 Build 0)  -->
<svg version="1.1" id="Layer_1" xmlns="http://www.w3.org/2000/svg" xmlns:xlink="http://www.w3.org/1999/xlink" x="0px" y="0px"
	 viewBox="0 0 920 227" enable-background="new 0 0 920 227" xml:space="preserve">
<g>
	<path fill="#0A2E28" d="M68.6,108.6l12,35.1l7.8-23.3c1.4-4,2.6-8,3.7-11.4h16.1l-16,39.3c-2.6,6.4-4.1,10.1-5.6,14.6l-12.1,0.7
		l-15.9-38.7c-1.9-4.8-4.3-10.9-6.5-15.6L68.6,108.6z"/>
	<path fill="#0A2E28" d="M124,137.3c0-17,11.3-29.5,28.1-29.5c16.1,0,26.7,11.8,26.7,26.8c0,17-11.4,29.5-28.1,29.5
		C134.6,164.1,124,152.2,124,137.3z M164,136.2c0-10.2-5.2-16.5-12.4-16.5c-7.7,0-12.7,7.2-12.7,16c0,10.2,5.3,16.5,12.5,16.5
		C159,152.2,164,145,164,136.2z"/>
	<path fill="#0A2E28" d="M194.9,162.7l18.5-27.5l-7.2-10.6l-10.5-15.3l16.9-0.6l11,17.2l3.7-6.4c1.9-3.1,4.6-7.4,6.5-10.4h16.6
		l-17.7,26.5l6.6,9.6c3.1,4.6,8.2,12.5,11.6,17.5l-17,0.6l-11.3-18.2l-3.5,5.7c-1.7,2.8-5.3,8.7-7.4,11.9H194.9z"/>
	<path fill="#0A2E28" d="M318.7,151.7c0,3,0.1,8.8,0.3,11h-16.2c0.4-3.7,0.5-13.4,0.5-18.4v-16.9c0-4.9-0.2-14.7-0.5-18.4
		c2.7,0,14.3-0.4,18.2-0.4c16,0,24.2,7.1,24.2,17.9c0,11.5-7.6,20.4-24.6,20.4h-1.9V151.7z M322.1,120.4c-1.2,0-1.8,0-3.6,0.2v15.3
		c0.9,0.2,1.7,0.2,2.4,0.2c5.9,0,9.6-2.6,9.6-7.9C330.6,123.1,327.7,120.4,322.1,120.4z"/>
	<path fill="#0A2E28" d="M397.5,163.5l-10.4-18.1l-1.1,0.1l-3.5,0.1v6.2c0,3,0.1,8.8,0.3,11h-16.1c0.4-3.7,0.5-13.4,0.5-18.4v-16.9
		c0-4.9-0.2-14.7-0.5-18.4c2.7,0,14.6-0.4,18.1-0.4c16.6-0.1,25.2,6.6,25.2,16.6c-0.1,7.6-3.7,12.4-10.1,16.1l9.2,13.2l5.5,7.6
		L397.5,163.5z M386.5,135.3c5.3,0,8.7-3,8.7-7.6c0-4.2-1.8-7.4-9-7.4c-1.3,0-2.7,0.1-3.8,0.2v14.9H386.5z"/>
	<path fill="#0A2E28" d="M431.4,137.3c0-17,11.3-29.5,28.1-29.5c16.1,0,26.7,11.8,26.7,26.8c0,17-11.4,29.5-28.1,29.5
		C442,164.1,431.4,152.2,431.4,137.3z M471.4,136.2c0-10.2-5.2-16.5-12.4-16.5c-7.7,0-12.7,7.2-12.7,16c0,10.2,5.3,16.5,12.5,16.5
		C466.4,152.2,471.4,145,471.4,136.2z"/>
	<path fill="#0A2E28" d="M529.2,162.7h-20.1c0.4-3.7,0.5-13.4,0.5-18.4v-16.9c0-4.9-0.2-14.6-0.5-18.2c2.7,0,9.5-0.5,18-0.5
		c20.2,0,31.4,9.7,31.4,26.1C558.6,152,547.2,162.7,529.2,162.7z M528.9,120.3c-1.6,0-2.6,0.1-3.8,0.2c-0.1,1-0.1,2.6-0.1,3.4v23.7
		c0,0.9,0,2.1,0.1,3.2c1.2,0.2,2.1,0.2,4,0.2c10.1,0,14.6-6.7,14.6-15.7C543.7,125.8,538.1,120.3,528.9,120.3z"/>
	<path fill="#0A2E28" d="M630.9,120v19c0,8.5-2.4,14.3-6.8,18.5c-4.5,4.3-10.7,6.6-18.5,6.6c-14.3,0-24.1-7.2-24.1-21.3v-15.3
		c0-4.9-0.2-14.7-0.5-18.4c3.1,0,13.6-0.1,16.1-0.4c-0.2,2.2-0.3,8.3-0.3,11.3v20.1c0,8.1,3.5,11.4,9.8,11.4c6,0,9-3.5,9-10.3v-13.8
		c0-4.9-0.2-14.7-0.6-18.4c3.1,0,13.7-0.1,16.3-0.4C631,110.9,630.9,117,630.9,120z"/>
	<path fill="#0A2E28" d="M699.2,159.6c-4.9,3-10.5,4.5-16.9,4.5c-17.2,0-28.5-11.9-28.5-26.8c0-17,12.1-29.5,30-29.5
		c6.2,0,12.1,1.6,16.2,4.3l-2.3,12.6c-3.2-2.7-7.8-4.7-13-4.7c-9.3,0-15.6,6.5-15.6,15.8c0,10.2,6.7,15.9,15.5,15.9
		c6.6,0,11.2-2.7,15.2-6L699.2,159.6z"/>
	<path fill="#0A2E28" d="M767.4,121.6c-5.3-0.1-9.8-0.2-15.8-0.2c-0.1,1.7-0.1,3.7-0.1,4.8v25.5c0,2.9,0.1,8.8,0.3,11h-16.2
		c0.4-3.7,0.5-13.4,0.5-18.4V133c0-2.8-0.1-7.6-0.2-11.5c-5.9,0-10.9,0.1-16.1,0.2c0.2-3.9,0.3-8.7,0.3-13
		c7.4,0.2,14.8,0.4,23.7,0.4c9,0,16.6-0.2,24.2-0.4C767.7,112.8,767.4,116.5,767.4,121.6z"/>
</g>
<g>
	<polygon fill="#F6A01A" points="867.1,64.3 867.1,106.9 829.3,85.6 	"/>
	<polygon fill="#FFEA53" points="791.6,64.3 791.6,106.9 829.3,85.6 	"/>
	<polygon fill="#016836" points="829.3,85.6 829.3,128.2 867.1,106.9 	"/>
	<polygon fill="#FFE512" points="829.3,85.6 829.3,128.2 791.6,106.9 	"/>
	<linearGradient id="SVGID_1_" gradientUnits="userSpaceOnUse" x1="805.5706" y1="124.4549" x2="845.8054" y2="67.2537">
		<stop  offset="0.195" style="stop-color:#FAB516"/>
		<stop  offset="0.2063" style="stop-color:#FAB616;stop-opacity:0.9825"/>
		<stop  offset="0.359" style="stop-color:#FDC112;stop-opacity:0.746"/>
		<stop  offset="0.5427" style="stop-color:#FFC80F;stop-opacity:0.4613"/>
		<stop  offset="0.8405" style="stop-color:#FFCA0D;stop-opacity:0"/>
	</linearGradient>
	<polygon opacity="0.79" fill="url(#SVGID_1_)" points="829.3,85.6 829.3,128.2 791.6,106.9 	"/>
	<polygon fill="#5A9441" points="866.9,64.3 866.9,106.9 829.1,85.6 	"/>
	<polygon fill="#C5D638" points="791.4,64.3 791.4,106.9 829.1,85.6 	"/>
	<polygon fill="#02B14F" points="829.1,85.6 829.1,128.1 791.4,106.9 	"/>
</g>
</svg>
